<svg width="816" height="1038" viewBox="0 0 816 1038" fill="none" xmlns="http://www.w3.org/2000/svg">
<path fill-rule="evenodd" clip-rule="evenodd" d="M664.294 360.436L709.202 168.801C709.202 168.801 480.256 298.021 611.297 471.559C631.148 410.172 664.294 360.436 664.294 360.436Z" fill="#003780" style="fill:#003780;fill:color(display-p3 0.0000 0.2157 0.5020);fill-opacity:1;"/>
<mask id="mask0_359_205" style="mask-type:luminance" maskUnits="userSpaceOnUse" x="615" y="168" width="95" height="248">
<path d="M664.294 360.436L709.202 168.801C660.29 213.804 578.268 316.473 633.987 415.201C649.642 382.424 664.294 360.436 664.294 360.436Z" fill="white" style="fill:white;fill-opacity:1;"/>
</mask>
<g mask="url(#mask0_359_205)">
<path d="M709.202 168.801H578.268V415.201H709.202V168.801Z" fill="url(#paint0_linear_359_205)" style=""/>
</g>
<path fill-rule="evenodd" clip-rule="evenodd" d="M620.527 437.693L535.104 253.629C535.104 253.629 429.461 428.895 615.237 537.6C616.815 518.451 620.932 499.185 626.393 480.777C621.556 454.944 620.527 437.693 620.527 437.693Z" fill="#003780" style="fill:#003780;fill:color(display-p3 0.0000 0.2157 0.5020);fill-opacity:1;"/>
<mask id="mask1_359_205" style="mask-type:luminance" maskUnits="userSpaceOnUse" x="528" y="253" width="99" height="240">
<path d="M620.525 437.693L535.103 253.629C521.733 309.22 516.548 424.678 623.146 492.453C624.161 488.529 625.248 484.633 626.392 480.775C621.555 454.943 620.525 437.693 620.525 437.693Z" fill="white" style="fill:white;fill-opacity:1;"/>
</mask>
<g mask="url(#mask1_359_205)">
<path d="M626.393 253.629H516.549V492.453H626.393V253.629Z" fill="url(#paint1_linear_359_205)" style=""/>
</g>
<path fill-rule="evenodd" clip-rule="evenodd" d="M605.027 496.057L438.478 344.838C438.478 344.838 423.045 518.659 616.902 582.63C613.158 561.314 614.125 538.786 617.931 516.581C609.498 503.92 605.027 496.057 605.027 496.057Z" fill="#003780" style="fill:#003780;fill:color(display-p3 0.0000 0.2157 0.5020);fill-opacity:1;"/>
<mask id="mask2_359_205" style="mask-type:luminance" maskUnits="userSpaceOnUse" x="438" y="344" width="180" height="198">
<path d="M605.025 496.057L438.476 344.838C451.362 397.775 496.708 499.84 614.976 541.112C615.515 532.942 616.53 524.739 617.929 516.58C609.496 503.92 605.025 496.057 605.025 496.057Z" fill="white" style="fill:white;fill-opacity:1;"/>
</mask>
<g mask="url(#mask2_359_205)">
<path d="M617.931 344.838H438.478V541.112H617.931V344.838Z" fill="url(#paint2_linear_359_205)" style=""/>
</g>
<path fill-rule="evenodd" clip-rule="evenodd" d="M598.94 542.153L374.308 439.066C374.308 439.066 433.093 596.669 629.136 619.361C625.066 611.562 621.949 603.415 619.661 595.021C616.083 581.901 614.534 568.177 614.535 554.236C604.518 546.751 598.94 542.153 598.94 542.153Z" fill="#003780" style="fill:#003780;fill:color(display-p3 0.0000 0.2157 0.5020);fill-opacity:1;"/>
<mask id="mask3_359_205" style="mask-type:luminance" maskUnits="userSpaceOnUse" x="374" y="439" width="243" height="143">
<path d="M598.94 542.153L374.308 439.066C408.929 484.603 492.928 566.516 616.658 581.197C615.198 572.375 614.535 563.351 614.535 554.235C604.515 546.749 598.94 542.153 598.94 542.153Z" fill="white" style="fill:white;fill-opacity:1;"/>
</mask>
<g mask="url(#mask3_359_205)">
<path d="M616.658 439.066H374.308V581.197H616.658V439.066Z" fill="url(#paint3_linear_359_205)" style=""/>
</g>
<path fill-rule="evenodd" clip-rule="evenodd" d="M617.991 588.178L406.586 550.084C406.586 550.084 500.549 654.144 652.561 650.163C635.582 634.182 625.196 615.326 619.662 595.023C619.044 592.759 618.49 590.476 617.991 588.178Z" fill="#003780" style="fill:#003780;fill:color(display-p3 0.0000 0.2157 0.5020);fill-opacity:1;"/>
<mask id="mask4_359_205" style="mask-type:luminance" maskUnits="userSpaceOnUse" x="406" y="550" width="224" height="71">
<path d="M617.991 588.178L406.586 550.084C447.847 577.947 533.895 622.465 629.933 620.86C625.472 612.608 622.097 603.956 619.662 595.023C619.044 592.759 618.49 590.476 617.991 588.178Z" fill="white" style="fill:white;fill-opacity:1;"/>
</mask>
<g mask="url(#mask4_359_205)">
<path d="M629.933 550.084H406.586V622.466H629.933V550.084Z" fill="url(#paint4_linear_359_205)" style=""/>
</g>
<path fill-rule="evenodd" clip-rule="evenodd" d="M632.461 625.295L474.656 639.684C474.656 639.684 576.533 693.191 689.817 675.131C662.686 662.193 644.278 644.998 632.461 625.295Z" fill="#003780" style="fill:#003780;fill:color(display-p3 0.0000 0.2157 0.5020);fill-opacity:1;"/>
<mask id="mask5_359_205" style="mask-type:luminance" maskUnits="userSpaceOnUse" x="474" y="625" width="185" height="34">
<path d="M632.461 625.295L474.656 639.684C514.804 651.434 587.562 665.696 658.08 655.063C647.341 646.079 638.918 636.061 632.461 625.295Z" fill="white" style="fill:white;fill-opacity:1;"/>
</mask>
<g mask="url(#mask5_359_205)">
<path d="M658.08 625.295H474.656V665.696H658.08V625.295Z" fill="url(#paint5_linear_359_205)" style=""/>
</g>
<mask id="mask6_359_205" style="mask-type:luminance" maskUnits="userSpaceOnUse" x="596" y="360" width="151" height="321">
<path d="M652.671 585.339C627.852 548.324 619.009 481.385 664.294 360.438C664.294 360.438 631.148 410.174 611.297 471.561C598.515 511.087 591.244 555.443 601.882 594.463C611.656 630.316 636.55 661.663 686.179 680.619C689.937 677.789 693.483 674.961 696.831 672.181C711.389 660.094 734.788 638.084 746.731 630.873C746.731 630.874 685.621 634.479 652.671 585.339Z" fill="white" style="fill:white;fill-opacity:1;"/>
</mask>
<g mask="url(#mask6_359_205)">
<path d="M746.731 360.438H591.243V680.619H746.731V360.438Z" fill="url(#paint6_linear_359_205)" style=""/>
</g>
<path fill-rule="evenodd" clip-rule="evenodd" d="M315.389 869.01L106.343 1015.91C106.343 1015.91 421.785 1011.57 460.283 796.682C388.518 841.131 315.389 869.01 315.389 869.01Z" fill="#003780" style="fill:#003780;fill:color(display-p3 0.0000 0.2157 0.5020);fill-opacity:1;"/>
<mask id="mask7_359_205" style="mask-type:luminance" maskUnits="userSpaceOnUse" x="106" y="835" width="285" height="181">
<path d="M315.389 869.009L106.343 1015.9C189.131 999.7 352.034 948.636 390.475 835.359C347.718 856.682 315.389 869.009 315.389 869.009Z" fill="white" style="fill:white;fill-opacity:1;"/>
</mask>
<g mask="url(#mask7_359_205)">
<path d="M390.475 835.359H106.343V1015.9H390.475V835.359Z" fill="url(#paint7_linear_359_205)" style=""/>
</g>
<path fill-rule="evenodd" clip-rule="evenodd" d="M379.39 866.678L293.614 1038C293.614 1038 534.856 947.226 454.013 770.693C421.491 824.892 379.39 866.678 379.39 866.678Z" fill="#003780" style="fill:#003780;fill:color(display-p3 0.0000 0.2157 0.5020);fill-opacity:1;"/>
<mask id="mask8_359_205" style="mask-type:luminance" maskUnits="userSpaceOnUse" x="293" y="819" width="133" height="219">
<path d="M379.39 866.681L293.614 1038C349.176 1002.55 448.641 917.984 420.033 819.898C398.001 848.207 379.39 866.681 379.39 866.681Z" fill="white" style="fill:white;fill-opacity:1;"/>
</mask>
<g mask="url(#mask8_359_205)">
<path d="M448.641 819.898H293.614V1038H448.641V819.898Z" fill="url(#paint8_linear_359_205)" style=""/>
</g>
<path fill-rule="evenodd" clip-rule="evenodd" d="M428.553 837.801L440.743 996.917C440.743 996.917 591.185 862.786 443.013 741.893C442.552 793.601 428.553 837.801 428.553 837.801Z" fill="#003780" style="fill:#003780;fill:color(display-p3 0.0000 0.2157 0.5020);fill-opacity:1;"/>
<mask id="mask9_359_205" style="mask-type:luminance" maskUnits="userSpaceOnUse" x="428" y="789" width="50" height="208">
<path d="M428.553 837.8L440.743 996.916C468.521 954.366 508.282 861.289 439.023 789.967C434.74 818.259 428.553 837.8 428.553 837.8Z" fill="white" style="fill:white;fill-opacity:1;"/>
</mask>
<g mask="url(#mask9_359_205)">
<path d="M508.282 789.967H428.553V996.916H508.282V789.967Z" fill="url(#paint9_linear_359_205)" style=""/>
</g>
<mask id="mask10_359_205" style="mask-type:luminance" maskUnits="userSpaceOnUse" x="287" y="503" width="529" height="387">
<path d="M521.966 618.685C418.421 714.112 320.773 841.496 287.766 889.148L484.128 863.625C674.599 830.422 723.419 742.163 737.928 672.473C739.212 666.308 740.227 660.288 741.048 654.465C744.618 629.141 747.123 585.123 753.434 567.82C757.112 557.737 765.298 549.727 781.096 547.024C792.582 545.059 806.236 545.825 816 547.975C802.704 531.085 773.046 523.204 773.046 523.204C765.192 511.499 750.162 506.57 737.401 504.545C691.984 497.336 634.543 526.832 575.745 572.75C557.844 586.731 539.817 602.232 521.966 618.685Z" fill="white" style="fill:white;fill-opacity:1;"/>
</mask>
<g mask="url(#mask10_359_205)">
<path d="M816 497.34H287.766V889.151H816V497.34Z" fill="url(#paint10_linear_359_205)" style=""/>
</g>
<path fill-rule="evenodd" clip-rule="evenodd" d="M370.024 781.955C332.54 827.458 303.139 866.952 287.766 889.147L484.128 863.625C674.599 830.422 723.419 742.163 737.928 672.473C737.928 672.473 636.774 801.252 370.024 781.955Z" fill="black" style="fill:black;fill-opacity:1;"/>
<path fill-rule="evenodd" clip-rule="evenodd" d="M309.367 276.241L127.323 0C127.323 0 -4.92603 320.132 380.329 454.587C329.03 362.415 309.367 276.241 309.367 276.241Z" fill="#003780" style="fill:#003780;fill:color(display-p3 0.0000 0.2157 0.5020);fill-opacity:1;"/>
<mask id="mask11_359_205" style="mask-type:luminance" maskUnits="userSpaceOnUse" x="126" y="0" width="213" height="367">
<path d="M309.368 276.241L127.324 0C120.828 90.7227 143.959 277.775 338.965 366.957C318.064 314.337 309.368 276.241 309.368 276.241Z" fill="white" style="fill:white;fill-opacity:1;"/>
</mask>
<g mask="url(#mask11_359_205)">
<path d="M338.965 0H120.828V366.957H338.965V0Z" fill="url(#paint11_linear_359_205)" style=""/>
</g>
<path fill-rule="evenodd" clip-rule="evenodd" d="M349.817 404.897L9.95117 226.193C9.95117 226.193 93.5633 522.346 467.988 536.701C446.062 511.058 427.249 483.554 411.235 456.247C372.716 426.347 349.817 404.897 349.817 404.897Z" fill="#003780" style="fill:#003780;fill:color(display-p3 0.0000 0.2157 0.5020);fill-opacity:1;"/>
<mask id="mask12_359_205" style="mask-type:luminance" maskUnits="userSpaceOnUse" x="9" y="226" width="413" height="248">
<path d="M349.817 404.897L9.95117 226.193C62.3212 306.558 200.075 458.252 421.673 473.42C418.068 467.698 414.59 461.966 411.233 456.243C372.715 426.345 349.817 404.897 349.817 404.897Z" fill="white" style="fill:white;fill-opacity:1;"/>
</mask>
<g mask="url(#mask12_359_205)">
<path d="M421.673 226.193H9.95117V473.42H421.673V226.193Z" fill="url(#paint12_linear_359_205)" style=""/>
</g>
<path fill-rule="evenodd" clip-rule="evenodd" d="M402.918 490.253L0 408.373C0 408.373 197.598 641.885 526.443 593.376C494.975 568.538 468.04 538.97 445.154 507.904C418.492 497.335 402.918 490.253 402.918 490.253Z" fill="#003780" style="fill:#003780;fill:color(display-p3 0.0000 0.2157 0.5020);fill-opacity:1;"/>
<mask id="mask13_359_205" style="mask-type:luminance" maskUnits="userSpaceOnUse" x="0" y="408" width="473" height="138">
<path d="M402.918 490.253L0 408.373C82.7525 467.639 268.615 568.094 472.044 541.38C462.517 530.53 453.562 519.317 445.152 507.901C418.492 497.334 402.918 490.253 402.918 490.253Z" fill="white" style="fill:white;fill-opacity:1;"/>
</mask>
<g mask="url(#mask13_359_205)">
<path d="M472.044 408.373H0V568.094H472.044V408.373Z" fill="url(#paint13_linear_359_205)" style=""/>
</g>
<path fill-rule="evenodd" clip-rule="evenodd" d="M452.767 553.531L35.4961 572.569C35.4961 572.569 308.074 735.256 588.094 632.288C573.116 625.019 558.925 616.662 545.488 607.429C524.487 592.999 505.332 576.426 487.898 558.532C465.678 555.674 452.767 553.531 452.767 553.531Z" fill="#003780" style="fill:#003780;fill:color(display-p3 0.0000 0.2157 0.5020);fill-opacity:1;"/>
<mask id="mask14_359_205" style="mask-type:luminance" maskUnits="userSpaceOnUse" x="35" y="553" width="490" height="71">
<path d="M452.767 553.531L35.4961 572.569C136.892 607.692 347.164 656.234 524.344 591.709C511.436 581.368 499.298 570.233 487.897 558.531C465.671 555.673 452.767 553.531 452.767 553.531Z" fill="white" style="fill:white;fill-opacity:1;"/>
</mask>
<g mask="url(#mask14_359_205)">
<path d="M524.345 553.531H35.4961V656.234H524.345V553.531Z" fill="url(#paint14_linear_359_205)" style=""/>
</g>
<path fill-rule="evenodd" clip-rule="evenodd" d="M534.781 599.768L215.777 693.318C215.777 693.318 466.541 763.573 656.683 656.039C614.902 646.965 577.986 629.759 545.488 607.429C541.864 604.938 538.297 602.381 534.781 599.768Z" fill="#003780" style="fill:#003780;fill:color(display-p3 0.0000 0.2157 0.5020);fill-opacity:1;"/>
<mask id="mask15_359_205" style="mask-type:luminance" maskUnits="userSpaceOnUse" x="215" y="599" width="376" height="98">
<path d="M534.781 599.768L215.777 693.318C303.589 701.279 469.722 700.443 590.986 633.671C574.939 626.086 559.786 617.253 545.488 607.428C541.864 604.938 538.297 602.381 534.781 599.768Z" fill="white" style="fill:white;fill-opacity:1;"/>
</mask>
<g mask="url(#mask15_359_205)">
<path d="M590.986 599.768H215.777V701.279H590.986V599.768Z" fill="url(#paint15_linear_359_205)" style=""/>
</g>
<path fill-rule="evenodd" clip-rule="evenodd" d="M599.783 637.66L415.223 762.461C415.223 762.461 612.915 762.496 735.736 662.982C684.728 664.657 639.593 654.988 599.783 637.66Z" fill="#003780" style="fill:#003780;fill:color(display-p3 0.0000 0.2157 0.5020);fill-opacity:1;"/>
<mask id="mask16_359_205" style="mask-type:luminance" maskUnits="userSpaceOnUse" x="415" y="637" width="255" height="126">
<path d="M599.783 637.66L415.223 762.461C481.453 750.491 592.682 719.773 669.898 658.607C644.877 654.312 621.536 647.129 599.783 637.66Z" fill="white" style="fill:white;fill-opacity:1;"/>
</mask>
<g mask="url(#mask16_359_205)">
<path d="M669.898 637.66H415.223V762.461H669.898V637.66Z" fill="url(#paint16_linear_359_205)" style=""/>
</g>
<mask id="mask17_359_205" style="mask-type:luminance" maskUnits="userSpaceOnUse" x="309" y="276" width="445" height="399">
<path d="M575.746 572.754C497.593 541.967 402.518 462.001 309.368 276.242C309.368 276.242 329.031 362.417 380.33 454.589C413.361 513.936 459.507 575.77 521.966 618.688C579.356 658.122 650.516 681.585 737.929 672.477C739.212 666.311 740.227 660.291 741.048 654.468C744.618 629.144 747.123 585.126 753.434 567.823C753.434 567.824 679.503 613.628 575.746 572.754Z" fill="white" style="fill:white;fill-opacity:1;"/>
</mask>
<g mask="url(#mask17_359_205)">
<path d="M753.434 276.242H309.368V681.586H753.434V276.242Z" fill="url(#paint17_linear_359_205)" style=""/>
</g>
<path fill-rule="evenodd" clip-rule="evenodd" d="M575.745 572.75C689.244 502.948 773.045 523.204 773.045 523.204C765.192 511.499 750.162 506.57 737.401 504.545C691.984 497.336 634.543 526.832 575.745 572.75Z" fill="#FCE2A6" style="fill:#FCE2A6;fill:color(display-p3 0.9882 0.8863 0.6510);fill-opacity:1;"/>
<defs>
<linearGradient id="paint0_linear_359_205" x1="689.896" y1="174.817" x2="650.862" y2="358.756" gradientUnits="userSpaceOnUse">
<stop stop-color="#FFCE4B" style="stop-color:#FFCE4B;stop-color:color(display-p3 1.0000 0.8078 0.2941);stop-opacity:1;"/>
<stop offset="1" stop-color="#F452CB" style="stop-color:#F452CB;stop-color:color(display-p3 0.9569 0.3216 0.7961);stop-opacity:1;"/>
</linearGradient>
<linearGradient id="paint1_linear_359_205" x1="535.45" y1="282.646" x2="572.442" y2="454.962" gradientUnits="userSpaceOnUse">
<stop stop-color="#F452CB" style="stop-color:#F452CB;stop-color:color(display-p3 0.9569 0.3216 0.7961);stop-opacity:1;"/>
<stop offset="1" stop-color="#0928D8" style="stop-color:#0928D8;stop-color:color(display-p3 0.0353 0.1569 0.8471);stop-opacity:1;"/>
</linearGradient>
<linearGradient id="paint2_linear_359_205" x1="432.688" y1="374.584" x2="567.863" y2="554.244" gradientUnits="userSpaceOnUse">
<stop stop-color="#4EEB90" style="stop-color:#4EEB90;stop-color:color(display-p3 0.3059 0.9216 0.5647);stop-opacity:1;"/>
<stop offset="1" stop-color="#00478F" style="stop-color:#00478F;stop-color:color(display-p3 0.0000 0.2784 0.5608);stop-opacity:1;"/>
</linearGradient>
<linearGradient id="paint3_linear_359_205" x1="617.151" y1="573.246" x2="440.915" y2="403.548" gradientUnits="userSpaceOnUse">
<stop stop-color="#008A80" style="stop-color:#008A80;stop-color:color(display-p3 0.0000 0.5412 0.5020);stop-opacity:1;"/>
<stop offset="1" stop-color="#AFF022" style="stop-color:#AFF022;stop-color:color(display-p3 0.6863 0.9412 0.1333);stop-opacity:1;"/>
</linearGradient>
<linearGradient id="paint4_linear_359_205" x1="633.305" y1="630.118" x2="431.182" y2="487.135" gradientUnits="userSpaceOnUse">
<stop stop-color="#0286CF" style="stop-color:#0286CF;stop-color:color(display-p3 0.0078 0.5255 0.8118);stop-opacity:1;"/>
<stop offset="1" stop-color="#51F4E9" style="stop-color:#51F4E9;stop-color:color(display-p3 0.3176 0.9569 0.9137);stop-opacity:1;"/>
</linearGradient>
<linearGradient id="paint5_linear_359_205" x1="702.309" y1="656.978" x2="461.649" y2="619.245" gradientUnits="userSpaceOnUse">
<stop stop-color="#0286CF" style="stop-color:#0286CF;stop-color:color(display-p3 0.0078 0.5255 0.8118);stop-opacity:1;"/>
<stop offset="1" stop-color="#51F4E9" style="stop-color:#51F4E9;stop-color:color(display-p3 0.3176 0.9569 0.9137);stop-opacity:1;"/>
</linearGradient>
<linearGradient id="paint6_linear_359_205" x1="639.331" y1="670.894" x2="667.121" y2="409.339" gradientUnits="userSpaceOnUse">
<stop stop-color="#0012AF" style="stop-color:#0012AF;stop-color:color(display-p3 0.0000 0.0706 0.6863);stop-opacity:1;"/>
<stop offset="1" stop-color="#DA34C4" style="stop-color:#DA34C4;stop-color:color(display-p3 0.8549 0.2039 0.7686);stop-opacity:1;"/>
</linearGradient>
<linearGradient id="paint7_linear_359_205" x1="362.615" y1="877.033" x2="121.398" y2="1067.57" gradientUnits="userSpaceOnUse">
<stop stop-color="#0286CF" style="stop-color:#0286CF;stop-color:color(display-p3 0.0078 0.5255 0.8118);stop-opacity:1;"/>
<stop offset="1" stop-color="#51F4E9" style="stop-color:#51F4E9;stop-color:color(display-p3 0.3176 0.9569 0.9137);stop-opacity:1;"/>
</linearGradient>
<linearGradient id="paint8_linear_359_205" x1="429.836" y1="864.644" x2="327.948" y2="1071.8" gradientUnits="userSpaceOnUse">
<stop stop-color="#0286CF" style="stop-color:#0286CF;stop-color:color(display-p3 0.0078 0.5255 0.8118);stop-opacity:1;"/>
<stop offset="1" stop-color="#51F4E9" style="stop-color:#51F4E9;stop-color:color(display-p3 0.3176 0.9569 0.9137);stop-opacity:1;"/>
</linearGradient>
<linearGradient id="paint9_linear_359_205" x1="485.412" y1="825.682" x2="460.234" y2="1012.02" gradientUnits="userSpaceOnUse">
<stop stop-color="#0286CF" style="stop-color:#0286CF;stop-color:color(display-p3 0.0078 0.5255 0.8118);stop-opacity:1;"/>
<stop offset="1" stop-color="#51F4E9" style="stop-color:#51F4E9;stop-color:color(display-p3 0.3176 0.9569 0.9137);stop-opacity:1;"/>
</linearGradient>
<linearGradient id="paint10_linear_359_205" x1="623.601" y1="782.666" x2="504.956" y2="508.073" gradientUnits="userSpaceOnUse">
<stop stop-color="#0F0DB2" style="stop-color:#0F0DB2;stop-color:color(display-p3 0.0588 0.0510 0.6980);stop-opacity:1;"/>
<stop offset="1" stop-color="#EC2FD3" style="stop-color:#EC2FD3;stop-color:color(display-p3 0.9255 0.1843 0.8275);stop-opacity:1;"/>
</linearGradient>
<linearGradient id="paint11_linear_359_205" x1="146.994" y1="11.1617" x2="222.052" y2="300.757" gradientUnits="userSpaceOnUse">
<stop stop-color="#FFCE4B" style="stop-color:#FFCE4B;stop-color:color(display-p3 1.0000 0.8078 0.2941);stop-opacity:1;"/>
<stop offset="1" stop-color="#F452CB" style="stop-color:#F452CB;stop-color:color(display-p3 0.9569 0.3216 0.7961);stop-opacity:1;"/>
</linearGradient>
<linearGradient id="paint12_linear_359_205" x1="53.8412" y1="256.515" x2="274.473" y2="492.405" gradientUnits="userSpaceOnUse">
<stop stop-color="#F452CB" style="stop-color:#F452CB;stop-color:color(display-p3 0.9569 0.3216 0.7961);stop-opacity:1;"/>
<stop offset="1" stop-color="#0928D8" style="stop-color:#0928D8;stop-color:color(display-p3 0.0353 0.1569 0.8471);stop-opacity:1;"/>
</linearGradient>
<linearGradient id="paint13_linear_359_205" x1="26.8075" y1="464.681" x2="436.302" y2="550.252" gradientUnits="userSpaceOnUse">
<stop stop-color="#4EEB90" style="stop-color:#4EEB90;stop-color:color(display-p3 0.3059 0.9216 0.5647);stop-opacity:1;"/>
<stop offset="1" stop-color="#00478F" style="stop-color:#00478F;stop-color:color(display-p3 0.0000 0.2784 0.5608);stop-opacity:1;"/>
</linearGradient>
<linearGradient id="paint14_linear_359_205" x1="515.213" y1="603.905" x2="77.5312" y2="607.281" gradientUnits="userSpaceOnUse">
<stop stop-color="#008A80" style="stop-color:#008A80;stop-color:color(display-p3 0.0000 0.5412 0.5020);stop-opacity:1;"/>
<stop offset="1" stop-color="#AFF022" style="stop-color:#AFF022;stop-color:color(display-p3 0.6863 0.9412 0.1333);stop-opacity:1;"/>
</linearGradient>
<linearGradient id="paint15_linear_359_205" x1="604.198" y1="629.467" x2="190.8" y2="709.929" gradientUnits="userSpaceOnUse">
<stop stop-color="#0286CF" style="stop-color:#0286CF;stop-color:color(display-p3 0.0078 0.5255 0.8118);stop-opacity:1;"/>
<stop offset="1" stop-color="#51F4E9" style="stop-color:#51F4E9;stop-color:color(display-p3 0.3176 0.9569 0.9137);stop-opacity:1;"/>
</linearGradient>
<linearGradient id="paint16_linear_359_205" x1="724.955" y1="625.836" x2="443.537" y2="838.416" gradientUnits="userSpaceOnUse">
<stop stop-color="#0286CF" style="stop-color:#0286CF;stop-color:color(display-p3 0.0078 0.5255 0.8118);stop-opacity:1;"/>
<stop offset="1" stop-color="#51F4E9" style="stop-color:#51F4E9;stop-color:color(display-p3 0.3176 0.9569 0.9137);stop-opacity:1;"/>
</linearGradient>
<linearGradient id="paint17_linear_359_205" x1="677.901" y1="686.918" x2="523.654" y2="280.394" gradientUnits="userSpaceOnUse">
<stop stop-color="#0012AF" style="stop-color:#0012AF;stop-color:color(display-p3 0.0000 0.0706 0.6863);stop-opacity:1;"/>
<stop offset="1" stop-color="#DA34C4" style="stop-color:#DA34C4;stop-color:color(display-p3 0.8549 0.2039 0.7686);stop-opacity:1;"/>
</linearGradient>
</defs>
</svg>
